<svg width="32" height="29" viewBox="0 0 32 29" fill="none" xmlns="http://www.w3.org/2000/svg">
<path d="M1.6 0H30.4C30.8243 0 31.2313 0.169742 31.5314 0.471883C31.8314 0.774025 32 1.18382 32 1.61111V27.3889C32 27.8162 31.8314 28.226 31.5314 28.5281C31.2313 28.8303 30.8243 29 30.4 29H1.6C1.17565 29 0.768687 28.8303 0.468629 28.5281C0.168571 28.226 0 27.8162 0 27.3889V1.61111C0 1.18382 0.168571 0.774025 0.468629 0.471883C0.768687 0.169742 1.17565 0 1.6 0ZM6.4 6.44444V22.5556H11.2V6.44444H6.4ZM12.8 6.44444V22.5556H16V6.44444H12.8ZM17.6 6.44444V22.5556H19.2V6.44444H17.6ZM20.8 6.44444V22.5556H25.6V6.44444H20.8Z" fill="#A256BD"/>
</svg>
