<svg width="26" height="26" viewBox="0 0 26 26" fill="none" xmlns="http://www.w3.org/2000/svg">
<circle cx="13" cy="13" r="13" fill="white"/>
<path fill-rule="evenodd" clip-rule="evenodd" d="M13 5.56667C12.2452 5.56667 11.6333 6.17854 11.6333 6.93333V11.6333H6.93332C6.17853 11.6333 5.56665 12.2452 5.56665 13C5.56665 13.7548 6.17853 14.3667 6.93332 14.3667H11.6333V19.0667C11.6333 19.8215 12.2452 20.4333 13 20.4333C13.7548 20.4333 14.3667 19.8215 14.3667 19.0667V14.3667H19.0667C19.8214 14.3667 20.4333 13.7548 20.4333 13C20.4333 12.2452 19.8214 11.6333 19.0667 11.6333H14.3667V6.93333C14.3667 6.17854 13.7548 5.56667 13 5.56667Z" fill="#A256BD"/>
</svg>
