<svg width="27" height="28" viewBox="0 0 27 28" fill="none" xmlns="http://www.w3.org/2000/svg">
<path d="M0 22.4941V27.2223C0 27.6578 0.329955 28 0.749898 28H5.30928C5.50425 28 5.69923 27.9222 5.83421 27.7667L22.212 10.7979L16.5877 4.96535L0.22497 21.9342C0.07499 22.0897 0 22.2763 0 22.4941ZM26.5614 6.28739C26.7004 6.1435 26.8107 5.97259 26.886 5.78443C26.9613 5.59628 27 5.39458 27 5.19088C27 4.98717 26.9613 4.78547 26.886 4.59732C26.8107 4.40916 26.7004 4.23825 26.5614 4.09436L23.0519 0.454851C22.9131 0.310665 22.7483 0.196273 22.5669 0.118224C22.3854 0.0401745 22.1909 0 21.9945 0C21.7981 0 21.6036 0.0401745 21.4222 0.118224C21.2407 0.196273 21.0759 0.310665 20.9372 0.454851L18.1925 3.30113L23.8168 9.13367L26.5614 6.28739Z" fill="#A256BD"/>
</svg>
