<svg width="30" height="40" viewBox="0 0 30 40" fill="none" xmlns="http://www.w3.org/2000/svg">
<path d="M0 20C0 20.5304 0.197544 21.0391 0.549175 21.4142C0.900806 21.7893 1.37772 22 1.875 22H16.1063L11.7937 26.58C11.618 26.7659 11.4785 26.9871 11.3833 27.2308C11.2881 27.4746 11.2391 27.736 11.2391 28C11.2391 28.264 11.2881 28.5254 11.3833 28.7692C11.4785 29.0129 11.618 29.2341 11.7937 29.42C11.9681 29.6075 12.1754 29.7562 12.4039 29.8578C12.6324 29.9593 12.8775 30.0116 13.125 30.0116C13.3725 30.0116 13.6176 29.9593 13.8461 29.8578C14.0746 29.7562 14.2819 29.6075 14.4563 29.42L21.9562 21.42C22.127 21.2298 22.2608 21.0055 22.35 20.76C22.5375 20.2731 22.5375 19.7269 22.35 19.24C22.2608 18.9945 22.127 18.7702 21.9562 18.58L14.4563 10.58C14.2814 10.3935 14.0739 10.2456 13.8455 10.1447C13.6171 10.0438 13.3722 9.99182 13.125 9.99182C12.8778 9.99182 12.6329 10.0438 12.4045 10.1447C12.1761 10.2456 11.9686 10.3935 11.7937 10.58C11.6189 10.7665 11.4803 10.9879 11.3856 11.2315C11.291 11.4751 11.2423 11.7363 11.2423 12C11.2423 12.2637 11.291 12.5249 11.3856 12.7685C11.4803 13.0121 11.6189 13.2335 11.7937 13.42L16.1063 18H1.875C1.37772 18 0.900806 18.2107 0.549175 18.5858C0.197544 18.9609 0 19.4696 0 20ZM24.375 0H5.625C4.13316 0 2.70242 0.632141 1.64752 1.75736C0.592632 2.88258 0 4.4087 0 6V12C0 12.5304 0.197544 13.0391 0.549175 13.4142C0.900806 13.7893 1.37772 14 1.875 14C2.37228 14 2.84919 13.7893 3.20082 13.4142C3.55246 13.0391 3.75 12.5304 3.75 12V6C3.75 5.46957 3.94754 4.96086 4.29918 4.58579C4.65081 4.21071 5.12772 4 5.625 4H24.375C24.8723 4 25.3492 4.21071 25.7008 4.58579C26.0525 4.96086 26.25 5.46957 26.25 6V34C26.25 34.5304 26.0525 35.0391 25.7008 35.4142C25.3492 35.7893 24.8723 36 24.375 36H5.625C5.12772 36 4.65081 35.7893 4.29918 35.4142C3.94754 35.0391 3.75 34.5304 3.75 34V28C3.75 27.4696 3.55246 26.9609 3.20082 26.5858C2.84919 26.2107 2.37228 26 1.875 26C1.37772 26 0.900806 26.2107 0.549175 26.5858C0.197544 26.9609 0 27.4696 0 28V34C0 35.5913 0.592632 37.1174 1.64752 38.2426C2.70242 39.3679 4.13316 40 5.625 40H24.375C25.8668 40 27.2976 39.3679 28.3525 38.2426C29.4074 37.1174 30 35.5913 30 34V6C30 4.4087 29.4074 2.88258 28.3525 1.75736C27.2976 0.632141 25.8668 0 24.375 0Z" fill="#A256BD"/>
</svg>
