<svg width="39" height="32" viewBox="0 0 39 32" fill="none" xmlns="http://www.w3.org/2000/svg">
<path d="M39 7.33334C39 6.09566 38.5206 4.90868 37.6673 4.03351C36.814 3.15834 35.6567 2.66668 34.45 2.66668H16.5839C16.1992 2.66794 15.8228 2.55192 15.5025 2.33334L13.2438 0.784176C12.4958 0.271188 11.6158 -0.00179644 10.7161 9.59124e-06H4.55C3.34327 9.59124e-06 2.18596 0.491675 1.33267 1.36684C0.479376 2.24201 2.55526e-06 3.429 2.55526e-06 4.66667V8.66667C2.55526e-06 8.84348 0.0684845 9.01305 0.190383 9.13808C0.312282 9.2631 0.477612 9.33334 0.650003 9.33334H38.35C38.5224 9.33334 38.6877 9.2631 38.8096 9.13808C38.9315 9.01305 39 8.84348 39 8.66667V7.33334ZM2.55526e-06 27.3333C2.55526e-06 28.571 0.479376 29.758 1.33267 30.6332C2.18596 31.5083 3.34327 32 4.55 32H34.45C35.6567 32 36.814 31.5083 37.6673 30.6332C38.5206 29.758 39 28.571 39 27.3333V12.6667C39 12.4899 38.9315 12.3203 38.8096 12.1953C38.6877 12.0702 38.5224 12 38.35 12H0.650003C0.477612 12 0.312282 12.0702 0.190383 12.1953C0.0684845 12.3203 2.55526e-06 12.4899 2.55526e-06 12.6667V27.3333Z" fill="white"/>
</svg>
