<svg width="36" height="24" viewBox="0 0 36 24" fill="none" xmlns="http://www.w3.org/2000/svg">
<path d="M35.8965 11.514C35.844 11.3955 34.5735 8.577 31.749 5.7525C27.9855 1.989 23.232 0 18 0C12.768 0 8.01449 1.989 4.25099 5.7525C1.42649 8.577 0.149986 11.4 0.103486 11.514C0.0352554 11.6675 0 11.8335 0 12.0015C0 12.1695 0.0352554 12.3355 0.103486 12.489C0.155986 12.6075 1.42649 15.4245 4.25099 18.249C8.01449 22.011 12.768 24 18 24C23.232 24 27.9855 22.011 31.749 18.249C34.5735 15.4245 35.844 12.6075 35.8965 12.489C35.9647 12.3355 36 12.1695 36 12.0015C36 11.8335 35.9647 11.6675 35.8965 11.514ZM18 18C16.8133 18 15.6533 17.6481 14.6666 16.9888C13.6799 16.3295 12.9108 15.3925 12.4567 14.2961C12.0026 13.1997 11.8838 11.9933 12.1153 10.8295C12.3468 9.66557 12.9182 8.59647 13.7574 7.75736C14.5965 6.91824 15.6656 6.3468 16.8295 6.11529C17.9933 5.88378 19.1997 6.0026 20.2961 6.45672C21.3925 6.91085 22.3295 7.67988 22.9888 8.66658C23.6481 9.65327 24 10.8133 24 12C24 13.5913 23.3679 15.1174 22.2426 16.2426C21.1174 17.3679 19.5913 18 18 18Z" fill="#A256BD"/>
</svg>
